<svg xmlns="http://www.w3.org/2000/svg" width="1440" height="240" viewBox="0 0 1440 240"><rect x="60" y="20" width="20" height="20" fill="#4f46e5" shape-rendering="crispEdges"/><rect x="180" y="20" width="20" height="20" fill="#4f46e5" shape-rendering="crispEdges"/><rect x="380" y="20" width="20" height="20" fill="#4f46e5" shape-rendering="crispEdges"/><rect x="500" y="20" width="20" height="20" fill="#4f46e5" shape-rendering="crispEdges"/><rect x="660" y="20" width="20" height="20" fill="#4f46e5" shape-rendering="crispEdges"/><rect x="740" y="20" width="20" height="20" fill="#4f46e5" shape-rendering="crispEdges"/><rect x="860" y="20" width="20" height="20" fill="#4f46e5" shape-rendering="crispEdges"/><rect x="980" y="20" width="20" height="20" fill="#4f46e5" shape-rendering="crispEdges"/><rect x="80" y="40" width="20" height="20" fill="#4f46e5" shape-rendering="crispEdges"/><rect x="100" y="40" width="20" height="20" fill="#4f46e5" shape-rendering="crispEdges"/><rect x="180" y="40" width="20" height="20" fill="#4f46e5" shape-rendering="crispEdges"/><rect x="240" y="40" width="20" height="20" fill="#4f46e5" shape-rendering="crispEdges"/><rect x="260" y="40" width="20" height="20" fill="#4f46e5" shape-rendering="crispEdges"/><rect x="400" y="40" width="20" height="20" fill="#4f46e5" shape-rendering="crispEdges"/><rect x="420" y="40" width="20" height="20" fill="#4f46e5" shape-rendering="crispEdges"/><rect x="500" y="40" width="20" height="20" fill="#4f46e5" shape-rendering="crispEdges"/><rect x="560" y="40" width="20" height="20" fill="#4f46e5" shape-rendering="crispEdges"/><rect x="660" y="40" width="20" height="20" fill="#4f46e5" shape-rendering="crispEdges"/><rect x="740" y="40" width="20" height="20" fill="#4f46e5" shape-rendering="crispEdges"/><rect x="880" y="40" width="20" height="20" fill="#4f46e5" shape-rendering="crispEdges"/><rect x="900" y="40" width="20" height="20" fill="#4f46e5" shape-rendering="crispEdges"/><rect x="920" y="40" width="20" height="20" fill="#4f46e5" shape-rendering="crispEdges"/><rect x="980" y="40" width="20" height="20" fill="#4f46e5" shape-rendering="crispEdges"/><rect x="1000" y="40" width="20" height="20" fill="#4f46e5" shape-rendering="crispEdges"/><rect x="1020" y="40" width="20" height="20" fill="#4f46e5" shape-rendering="crispEdges"/><rect x="1080" y="40" width="20" height="20" fill="#4f46e5" shape-rendering="crispEdges"/><rect x="20" y="60" width="20" height="20" fill="#4f46e5" shape-rendering="crispEdges"/><rect x="100" y="60" width="20" height="20" fill="#4f46e5" shape-rendering="crispEdges"/><rect x="180" y="60" width="20" height="20" fill="#4f46e5" shape-rendering="crispEdges"/><rect x="260" y="60" width="20" height="20" fill="#4f46e5" shape-rendering="crispEdges"/><rect x="340" y="60" width="20" height="20" fill="#4f46e5" shape-rendering="crispEdges"/><rect x="420" y="60" width="20" height="20" fill="#4f46e5" shape-rendering="crispEdges"/><rect x="500" y="60" width="20" height="20" fill="#4f46e5" shape-rendering="crispEdges"/><rect x="580" y="60" width="20" height="20" fill="#4f46e5" shape-rendering="crispEdges"/><rect x="660" y="60" width="20" height="20" fill="#4f46e5" shape-rendering="crispEdges"/><rect x="740" y="60" width="20" height="20" fill="#4f46e5" shape-rendering="crispEdges"/><rect x="820" y="60" width="20" height="20" fill="#4f46e5" shape-rendering="crispEdges"/><rect x="1020" y="60" width="20" height="20" fill="#4f46e5" shape-rendering="crispEdges"/><rect x="20" y="80" width="20" height="20" fill="#4f46e5" shape-rendering="crispEdges"/><rect x="180" y="80" width="20" height="20" fill="#4f46e5" shape-rendering="crispEdges"/><rect x="280" y="80" width="20" height="20" fill="#4f46e5" shape-rendering="crispEdges"/><rect x="340" y="80" width="20" height="20" fill="#4f46e5" shape-rendering="crispEdges"/><rect x="420" y="80" width="20" height="20" fill="#4f46e5" shape-rendering="crispEdges"/><rect x="500" y="80" width="20" height="20" fill="#4f46e5" shape-rendering="crispEdges"/><rect x="580" y="80" width="20" height="20" fill="#4f46e5" shape-rendering="crispEdges"/><rect x="660" y="80" width="20" height="20" fill="#4f46e5" shape-rendering="crispEdges"/><rect x="740" y="80" width="20" height="20" fill="#4f46e5" shape-rendering="crispEdges"/><rect x="820" y="80" width="20" height="20" fill="#4f46e5" shape-rendering="crispEdges"/><rect x="1020" y="80" width="20" height="20" fill="#4f46e5" shape-rendering="crispEdges"/><rect x="20" y="100" width="20" height="20" fill="#4f46e5" shape-rendering="crispEdges"/><rect x="180" y="100" width="20" height="20" fill="#4f46e5" shape-rendering="crispEdges"/><rect x="340" y="100" width="20" height="20" fill="#4f46e5" shape-rendering="crispEdges"/><rect x="420" y="100" width="20" height="20" fill="#4f46e5" shape-rendering="crispEdges"/><rect x="500" y="100" width="20" height="20" fill="#4f46e5" shape-rendering="crispEdges"/><rect x="580" y="100" width="20" height="20" fill="#4f46e5" shape-rendering="crispEdges"/><rect x="660" y="100" width="20" height="20" fill="#4f46e5" shape-rendering="crispEdges"/><rect x="740" y="100" width="20" height="20" fill="#4f46e5" shape-rendering="crispEdges"/><rect x="820" y="100" width="20" height="20" fill="#4f46e5" shape-rendering="crispEdges"/><rect x="1020" y="100" width="20" height="20" fill="#4f46e5" shape-rendering="crispEdges"/><rect x="20" y="120" width="20" height="20" fill="#4f46e5" shape-rendering="crispEdges"/><rect x="80" y="120" width="20" height="20" fill="#4f46e5" shape-rendering="crispEdges"/><rect x="100" y="120" width="20" height="20" fill="#4f46e5" shape-rendering="crispEdges"/><rect x="120" y="120" width="20" height="20" fill="#4f46e5" shape-rendering="crispEdges"/><rect x="180" y="120" width="20" height="20" fill="#4f46e5" shape-rendering="crispEdges"/><rect x="240" y="120" width="20" height="20" fill="#4f46e5" shape-rendering="crispEdges"/><rect x="340" y="120" width="20" height="20" fill="#4f46e5" shape-rendering="crispEdges"/><rect x="420" y="120" width="20" height="20" fill="#4f46e5" shape-rendering="crispEdges"/><rect x="500" y="120" width="20" height="20" fill="#4f46e5" shape-rendering="crispEdges"/><rect x="580" y="120" width="20" height="20" fill="#4f46e5" shape-rendering="crispEdges"/><rect x="660" y="120" width="20" height="20" fill="#4f46e5" shape-rendering="crispEdges"/><rect x="740" y="120" width="20" height="20" fill="#4f46e5" shape-rendering="crispEdges"/><rect x="820" y="120" width="20" height="20" fill="#4f46e5" shape-rendering="crispEdges"/><rect x="1020" y="120" width="20" height="20" fill="#4f46e5" shape-rendering="crispEdges"/><rect x="20" y="140" width="20" height="20" fill="#4f46e5" shape-rendering="crispEdges"/><rect x="180" y="140" width="20" height="20" fill="#4f46e5" shape-rendering="crispEdges"/><rect x="260" y="140" width="20" height="20" fill="#4f46e5" shape-rendering="crispEdges"/><rect x="340" y="140" width="20" height="20" fill="#4f46e5" shape-rendering="crispEdges"/><rect x="420" y="140" width="20" height="20" fill="#4f46e5" shape-rendering="crispEdges"/><rect x="500" y="140" width="20" height="20" fill="#4f46e5" shape-rendering="crispEdges"/><rect x="580" y="140" width="20" height="20" fill="#4f46e5" shape-rendering="crispEdges"/><rect x="660" y="140" width="20" height="20" fill="#4f46e5" shape-rendering="crispEdges"/><rect x="740" y="140" width="20" height="20" fill="#4f46e5" shape-rendering="crispEdges"/><rect x="820" y="140" width="20" height="20" fill="#4f46e5" shape-rendering="crispEdges"/><rect x="1020" y="140" width="20" height="20" fill="#4f46e5" shape-rendering="crispEdges"/><rect x="20" y="160" width="20" height="20" fill="#4f46e5" shape-rendering="crispEdges"/><rect x="180" y="160" width="20" height="20" fill="#4f46e5" shape-rendering="crispEdges"/><rect x="260" y="160" width="20" height="20" fill="#4f46e5" shape-rendering="crispEdges"/><rect x="340" y="160" width="20" height="20" fill="#4f46e5" shape-rendering="crispEdges"/><rect x="500" y="160" width="20" height="20" fill="#4f46e5" shape-rendering="crispEdges"/><rect x="660" y="160" width="20" height="20" fill="#4f46e5" shape-rendering="crispEdges"/><rect x="820" y="160" width="20" height="20" fill="#4f46e5" shape-rendering="crispEdges"/><rect x="1020" y="160" width="20" height="20" fill="#4f46e5" shape-rendering="crispEdges"/><rect x="20" y="180" width="20" height="20" fill="#4f46e5" shape-rendering="crispEdges"/><rect x="180" y="180" width="20" height="20" fill="#4f46e5" shape-rendering="crispEdges"/><rect x="260" y="180" width="20" height="20" fill="#4f46e5" shape-rendering="crispEdges"/><rect x="340" y="180" width="20" height="20" fill="#4f46e5" shape-rendering="crispEdges"/><rect x="500" y="180" width="20" height="20" fill="#4f46e5" shape-rendering="crispEdges"/><rect x="660" y="180" width="20" height="20" fill="#4f46e5" shape-rendering="crispEdges"/><rect x="820" y="180" width="20" height="20" fill="#4f46e5" shape-rendering="crispEdges"/><rect x="1020" y="180" width="20" height="20" fill="#4f46e5" shape-rendering="crispEdges"/><rect x="20" y="200" width="20" height="20" fill="#4f46e5" shape-rendering="crispEdges"/><rect x="40" y="200" width="20" height="20" fill="#4f46e5" shape-rendering="crispEdges"/><rect x="180" y="200" width="20" height="20" fill="#4f46e5" shape-rendering="crispEdges"/><rect x="200" y="200" width="20" height="20" fill="#4f46e5" shape-rendering="crispEdges"/><rect x="260" y="200" width="20" height="20" fill="#4f46e5" shape-rendering="crispEdges"/><rect x="280" y="200" width="20" height="20" fill="#4f46e5" shape-rendering="crispEdges"/><rect x="340" y="200" width="20" height="20" fill="#4f46e5" shape-rendering="crispEdges"/><rect x="360" y="200" width="20" height="20" fill="#4f46e5" shape-rendering="crispEdges"/><rect x="380" y="200" width="20" height="20" fill="#4f46e5" shape-rendering="crispEdges"/><rect x="400" y="200" width="20" height="20" fill="#4f46e5" shape-rendering="crispEdges"/><rect x="420" y="200" width="20" height="20" fill="#4f46e5" shape-rendering="crispEdges"/><rect x="440" y="200" width="20" height="20" fill="#4f46e5" shape-rendering="crispEdges"/><rect x="500" y="200" width="20" height="20" fill="#4f46e5" shape-rendering="crispEdges"/><rect x="520" y="200" width="20" height="20" fill="#4f46e5" shape-rendering="crispEdges"/><rect x="540" y="200" width="20" height="20" fill="#4f46e5" shape-rendering="crispEdges"/><rect x="560" y="200" width="20" height="20" fill="#4f46e5" shape-rendering="crispEdges"/><rect x="660" y="200" width="20" height="20" fill="#4f46e5" shape-rendering="crispEdges"/><rect x="680" y="200" width="20" height="20" fill="#4f46e5" shape-rendering="crispEdges"/><rect x="700" y="200" width="20" height="20" fill="#4f46e5" shape-rendering="crispEdges"/><rect x="720" y="200" width="20" height="20" fill="#4f46e5" shape-rendering="crispEdges"/><rect x="740" y="200" width="20" height="20" fill="#4f46e5" shape-rendering="crispEdges"/><rect x="760" y="200" width="20" height="20" fill="#4f46e5" shape-rendering="crispEdges"/><rect x="820" y="200" width="20" height="20" fill="#4f46e5" shape-rendering="crispEdges"/><rect x="840" y="200" width="20" height="20" fill="#4f46e5" shape-rendering="crispEdges"/><rect x="860" y="200" width="20" height="20" fill="#4f46e5" shape-rendering="crispEdges"/><rect x="880" y="200" width="20" height="20" fill="#4f46e5" shape-rendering="crispEdges"/><rect x="900" y="200" width="20" height="20" fill="#4f46e5" shape-rendering="crispEdges"/><rect x="920" y="200" width="20" height="20" fill="#4f46e5" shape-rendering="crispEdges"/><rect x="1020" y="200" width="20" height="20" fill="#4f46e5" shape-rendering="crispEdges"/><rect x="1180" y="20" width="20" height="20" fill="#111111" shape-rendering="crispEdges"/><rect x="1340" y="20" width="20" height="20" fill="#111111" shape-rendering="crispEdges"/><rect x="1200" y="40" width="20" height="20" fill="#111111" shape-rendering="crispEdges"/><rect x="1220" y="40" width="20" height="20" fill="#111111" shape-rendering="crispEdges"/><rect x="1360" y="40" width="20" height="20" fill="#111111" shape-rendering="crispEdges"/><rect x="1380" y="40" width="20" height="20" fill="#111111" shape-rendering="crispEdges"/><rect x="1400" y="40" width="20" height="20" fill="#111111" shape-rendering="crispEdges"/><rect x="1140" y="60" width="20" height="20" fill="#111111" shape-rendering="crispEdges"/><rect x="1220" y="60" width="20" height="20" fill="#111111" shape-rendering="crispEdges"/><rect x="1300" y="60" width="20" height="20" fill="#111111" shape-rendering="crispEdges"/><rect x="1140" y="80" width="20" height="20" fill="#111111" shape-rendering="crispEdges"/><rect x="1220" y="80" width="20" height="20" fill="#111111" shape-rendering="crispEdges"/><rect x="1300" y="80" width="20" height="20" fill="#111111" shape-rendering="crispEdges"/><rect x="1140" y="100" width="20" height="20" fill="#111111" shape-rendering="crispEdges"/><rect x="1220" y="100" width="20" height="20" fill="#111111" shape-rendering="crispEdges"/><rect x="1300" y="100" width="20" height="20" fill="#111111" shape-rendering="crispEdges"/><rect x="1140" y="120" width="20" height="20" fill="#111111" shape-rendering="crispEdges"/><rect x="1220" y="120" width="20" height="20" fill="#111111" shape-rendering="crispEdges"/><rect x="1300" y="120" width="20" height="20" fill="#111111" shape-rendering="crispEdges"/><rect x="1320" y="120" width="20" height="20" fill="#111111" shape-rendering="crispEdges"/><rect x="1340" y="120" width="20" height="20" fill="#111111" shape-rendering="crispEdges"/><rect x="1360" y="120" width="20" height="20" fill="#111111" shape-rendering="crispEdges"/><rect x="1380" y="120" width="20" height="20" fill="#111111" shape-rendering="crispEdges"/><rect x="1140" y="140" width="20" height="20" fill="#111111" shape-rendering="crispEdges"/><rect x="1220" y="140" width="20" height="20" fill="#111111" shape-rendering="crispEdges"/><rect x="1380" y="140" width="20" height="20" fill="#111111" shape-rendering="crispEdges"/><rect x="1140" y="160" width="20" height="20" fill="#111111" shape-rendering="crispEdges"/><rect x="1140" y="180" width="20" height="20" fill="#111111" shape-rendering="crispEdges"/><rect x="1300" y="180" width="20" height="20" fill="#111111" shape-rendering="crispEdges"/><rect x="1140" y="200" width="20" height="20" fill="#111111" shape-rendering="crispEdges"/><rect x="1160" y="200" width="20" height="20" fill="#111111" shape-rendering="crispEdges"/><rect x="1180" y="200" width="20" height="20" fill="#111111" shape-rendering="crispEdges"/><rect x="1200" y="200" width="20" height="20" fill="#111111" shape-rendering="crispEdges"/><rect x="1220" y="200" width="20" height="20" fill="#111111" shape-rendering="crispEdges"/><rect x="1240" y="200" width="20" height="20" fill="#111111" shape-rendering="crispEdges"/><rect x="1300" y="200" width="20" height="20" fill="#111111" shape-rendering="crispEdges"/><rect x="1320" y="200" width="20" height="20" fill="#111111" shape-rendering="crispEdges"/><rect x="1340" y="200" width="20" height="20" fill="#111111" shape-rendering="crispEdges"/><rect x="1360" y="200" width="20" height="20" fill="#111111" shape-rendering="crispEdges"/><rect x="1380" y="200" width="20" height="20" fill="#111111" shape-rendering="crispEdges"/><rect x="1400" y="200" width="20" height="20" fill="#111111" shape-rendering="crispEdges"/></svg>